<svg viewBox="0 0 207 52" fill="none" xmlns="http://www.w3.org/2000/svg">
<path d="M74.4114 20.0859V5.83181H78.6885V27.9812C77.2416 27.9812 75.8276 28.0316 74.4223 27.9418C74.1137 27.9221 73.7656 27.4471 73.5599 27.1035C71.1083 22.9643 68.683 18.8098 66.249 14.6596C66.0511 14.2838 65.7602 13.9651 65.4041 13.7337V27.9812C64.0272 27.9812 62.7971 28.0272 61.5735 27.9374C61.3546 27.9221 61.0438 27.3333 61.0394 27.005C60.9978 23.8683 61.0131 20.7316 61.0131 17.5927C61.0131 14.0183 61.0328 10.4416 61 6.86715C61 6.04851 61.232 5.82743 62.0944 5.70047C64.7474 5.30647 66.3015 6.24551 67.5163 8.71896C69.3134 12.3722 71.5724 15.7978 73.6452 19.3176C73.8182 19.6087 74.0174 19.8845 74.2034 20.1669L74.4114 20.0859Z" fill="#54238E"/>
<path d="M106.962 27.9178H102.678V23.6429H93.509C93.509 24.757 93.474 25.8755 93.5199 26.9897C93.5528 27.7405 93.301 28.036 92.5284 27.9966C91.4755 27.9419 90.4183 27.9834 89.2822 27.9834C89.2285 27.6874 89.1919 27.3885 89.1728 27.0882C89.1728 23.0015 89.1312 18.9149 89.1728 14.8304C89.2275 10.0827 92.4561 6.40752 96.9477 5.85592C102.096 5.2277 106.653 8.84813 106.909 14.1037C107.137 18.65 106.962 23.216 106.962 27.9178ZM98.0685 19.2257C99.3074 19.2257 100.546 19.2695 101.79 19.1928C102.085 19.1753 102.589 18.7551 102.599 18.5187C102.69 17.066 102.674 15.6087 102.551 14.1584C102.432 13.0565 101.909 12.0376 101.084 11.2974C100.259 10.5571 99.19 10.1477 98.0816 10.1477C96.9732 10.1477 95.9039 10.5571 95.0789 11.2974C94.254 12.0376 93.7315 13.0565 93.6119 14.1584C93.4929 15.6089 93.4768 17.0659 93.5637 18.5187C93.5747 18.766 94.0737 19.1753 94.367 19.1994C95.5906 19.2651 96.8317 19.2257 98.0685 19.2257Z" fill="#54238E"/>
<path d="M117.419 27.9812V5.71798C120.823 5.90622 124.224 5.2583 127.525 6.32867C132.778 8.03382 135.843 13.1712 135.018 18.7857C134.265 23.923 129.578 27.9177 124.209 27.979C121.989 28.0009 119.768 27.9812 117.419 27.9812ZM121.836 23.6385C122.712 23.6385 123.539 23.6603 124.364 23.6385C128.65 23.5027 131.732 19.2607 130.568 15.1193C129.62 11.744 126.847 9.9907 122.727 10.1023C121.981 10.122 121.714 10.3453 121.718 11.1114C121.749 14.9682 121.731 18.8251 121.738 22.6819C121.738 22.9599 121.795 23.2423 121.836 23.6385Z" fill="#54238E"/>
<path d="M149.082 10.1111V14.6947C151.166 14.6947 153.195 14.7319 155.224 14.6772C156.069 14.6531 156.426 14.896 156.356 15.7716C156.302 16.536 156.302 17.3033 156.356 18.0677C156.404 18.8339 156.098 19.0922 155.345 19.0746C153.668 19.0352 151.989 19.0593 150.31 19.0746C149.918 19.0746 149.524 19.1162 149.084 19.1403V23.5969H159.827C159.827 25.0065 159.862 26.298 159.784 27.5829C159.784 27.7383 159.166 27.9747 158.834 27.9769C154.933 28.0053 151.032 27.9966 147.13 27.9966H144.766V5.81432C145.101 5.78806 145.444 5.7399 145.79 5.7399C150.093 5.7399 154.395 5.7596 158.705 5.71582C159.615 5.71582 159.886 5.98506 159.886 6.88907C159.886 10.1111 159.915 10.1111 156.697 10.1111H149.082Z" fill="#54238E"/>
<path d="M167.5 5.7332C167.502 5.73613 167.503 5.73905 167.505 5.74196C169.272 5.74188 170.794 5.70265 172.327 5.79231C172.622 5.80544 172.985 6.1885 173.171 6.49057C174.268 8.25481 175.319 10.0453 176.387 11.8249C176.588 12.162 176.798 12.4925 177.125 13.0244C177.961 11.6323 178.69 10.3977 179.436 9.17634C180.119 8.06219 180.583 6.52121 181.583 5.97398C182.63 5.40049 184.201 5.78136 185.545 5.75509C185.867 5.75072 186.187 5.78355 186.64 5.80325C186.454 6.17536 186.333 6.46211 186.173 6.72259C184.271 9.83082 182.385 12.9478 180.443 16.0298C180.023 16.6733 180.038 17.1395 180.443 17.7809C182.325 20.7709 184.157 23.7938 186.003 26.8057C186.204 27.1384 186.381 27.4864 186.659 27.9855C184.935 27.9855 183.38 28.0227 181.831 27.9527C181.54 27.9373 181.185 27.5412 180.999 27.2347C179.725 25.1618 178.488 23.0649 177.138 20.8037C176.709 21.4779 176.358 22.0098 176.03 22.5549C175.069 24.1462 174.143 25.7572 173.147 27.3245C173.034 27.4908 172.887 27.632 172.716 27.7393C172.546 27.8467 172.355 27.9178 172.156 27.9483C170.705 28.0183 169.247 27.9789 167.605 27.9789C167.802 27.5937 167.922 27.3201 168.078 27.0683C169.995 23.9207 171.904 20.7753 173.859 17.6561C174.224 17.0782 174.218 16.6667 173.859 16.0932C171.961 13.0682 170.109 10.0169 168.24 6.97431C168.035 6.63897 167.837 6.2993 167.505 5.74196C167.503 5.74196 167.502 5.74196 167.5 5.74196V5.7332Z" fill="#54238E"/>
<path d="M24.625 44.4589C24.7051 44.4622 24.7838 44.4812 24.8566 44.5148C24.9293 44.5485 24.9948 44.5962 25.0491 44.6551C25.1034 44.714 25.1456 44.7831 25.1733 44.8584C25.2009 44.9336 25.2135 45.0136 25.2102 45.0937C25.207 45.1738 25.188 45.2525 25.1543 45.3253C25.1207 45.398 25.073 45.4635 25.014 45.5178C24.9551 45.5722 24.886 45.6144 24.8108 45.642C24.7355 45.6697 24.6555 45.6822 24.5754 45.679H24.5677C24.0291 45.6532 23.4883 45.6049 22.9455 45.534C22.4085 45.4641 21.8758 45.3727 21.3473 45.26C18.6191 44.6769 16.0457 43.5212 13.7974 41.8695C13.6701 41.772 13.5862 41.6284 13.5638 41.4696C13.5414 41.3108 13.5822 41.1496 13.6774 41.0207C13.7727 40.8917 13.9148 40.8053 14.0732 40.7801C14.2315 40.7549 14.3934 40.7929 14.524 40.8859C16.6312 42.4349 19.0432 43.519 21.6005 44.0665C22.0959 44.1729 22.5959 44.2589 23.1006 44.3246C23.5998 44.3895 24.1079 44.4343 24.625 44.4592V44.4589ZM27.7975 19.7671C28.0491 19.5148 28.348 19.3145 28.6771 19.1779C29.0062 19.0413 29.359 18.9709 29.7154 18.9709C30.0717 18.9709 30.4246 19.0413 30.7537 19.1779C31.0828 19.3145 31.3817 19.5148 31.6333 19.7671H31.6349C31.8884 20.0201 32.0892 20.3209 32.2256 20.652C32.362 20.9832 32.4313 21.3381 32.4295 21.6963C32.429 21.832 32.4186 21.9675 32.3982 22.1018C32.3102 22.6715 32.0426 23.1983 31.6344 23.6054H31.636L31.6344 23.6037C31.2012 24.0389 30.633 24.3139 30.023 24.3836C29.413 24.4533 28.7974 24.3136 28.2772 23.9873L12.3667 39.8979C12.2523 40.0119 12.0973 40.076 11.9358 40.076C11.7743 40.076 11.6194 40.0119 11.505 39.8979C9.01128 37.4097 7.22841 34.2998 6.3412 30.8906C5.99544 29.5632 5.78847 28.2034 5.72363 26.8332H5.72528V26.831C5.72168 26.7511 5.73385 26.6713 5.76109 26.5961C5.78833 26.521 5.83012 26.4519 5.88405 26.3929C5.99298 26.2737 6.14481 26.2026 6.30612 26.1954C6.46744 26.1881 6.62504 26.2452 6.74425 26.3541C6.86345 26.4631 6.9345 26.6149 6.94177 26.7762H6.94369C7.0041 28.0614 7.197 29.3369 7.51933 30.5824C8.29998 33.5816 9.82083 36.3369 11.9425 38.5959L27.415 23.1234C27.0891 22.6033 26.9494 21.9879 27.0188 21.3781C27.0882 20.7682 27.3625 20.1999 27.7969 19.7663L27.7975 19.7671ZM28.6614 20.6305L28.6597 20.6288C28.4354 20.853 28.2884 21.1428 28.2402 21.4562C28.2289 21.5301 28.2231 21.6046 28.2227 21.6793C28.2218 21.8765 28.26 22.072 28.3353 22.2544C28.4105 22.4367 28.5213 22.6023 28.6611 22.7415H28.6627L28.6614 22.7431C28.9422 23.0219 29.3219 23.1783 29.7176 23.1783C30.1133 23.1783 30.4929 23.0219 30.7738 22.7431L30.7719 22.7415L30.7735 22.7431C30.9979 22.5192 31.1446 22.2292 31.1922 21.9157C31.2039 21.8419 31.21 21.7672 31.2102 21.6924C31.211 21.4954 31.1727 21.3002 31.0974 21.1182C31.0222 20.9361 30.9115 20.7708 30.7719 20.6318V20.6299C30.491 20.3512 30.1113 20.1948 29.7156 20.1948C29.32 20.1948 28.9403 20.3512 28.6594 20.6299L28.6614 20.6316V20.6305Z" fill="#9C6BD8"/>
<path d="M15.5678 25.9246C15.5678 26.0868 15.5034 26.2423 15.3887 26.357C15.274 26.4717 15.1184 26.5361 14.9563 26.5361C14.7941 26.5361 14.6385 26.4717 14.5238 26.357C14.4092 26.2423 14.3447 26.0868 14.3447 25.9246C14.3447 25.8627 14.3466 25.7629 14.3499 25.6265C14.3529 25.5096 14.3566 25.4098 14.3612 25.327C14.3887 24.8136 14.4514 24.3027 14.5488 23.7979V23.7949C14.559 23.7418 14.5798 23.645 14.6105 23.5056C14.6357 23.3938 14.6584 23.2957 14.6793 23.2121C14.8052 22.7094 14.9664 22.2161 15.1615 21.7359L15.1642 21.7288C15.1691 21.7176 15.1741 21.7066 15.1796 21.6959C15.2209 21.5948 15.2538 21.5151 15.2793 21.4575C15.3067 21.3951 15.3492 21.3026 15.407 21.18C15.6316 20.7024 15.8903 20.2417 16.1812 19.8013L16.1834 19.7983C16.19 19.7882 16.1974 19.7783 16.2043 19.7684C16.2706 19.6692 16.3212 19.5942 16.3555 19.5451C16.4114 19.4657 16.4725 19.3812 16.5388 19.2917C16.8639 18.8554 17.2203 18.4433 17.6051 18.0588H17.6068C17.8744 17.7905 18.1556 17.5361 18.4493 17.2965C18.5381 17.2237 18.5863 17.1869 18.5929 17.1795C18.8303 16.9927 19.0829 16.8109 19.3507 16.634C19.4614 16.561 19.5482 16.505 19.611 16.4661C19.6866 16.419 19.7754 16.3664 19.8762 16.3072C20.3294 16.0436 20.8008 15.8125 21.2867 15.6156H21.2883C21.2985 15.6115 21.3089 15.6077 21.319 15.6041C21.4061 15.5693 21.4897 15.5367 21.5705 15.5066C21.6566 15.4741 21.7514 15.4402 21.8552 15.4049C22.3424 15.2371 22.8407 15.1035 23.3465 15.0049L23.3802 14.9992C23.4495 14.986 23.5375 14.9718 23.6443 14.9529C23.7629 14.9333 23.8619 14.9182 23.9416 14.9074C24.45 14.8366 24.9626 14.8008 25.4759 14.8005C25.5384 14.8005 25.6378 14.8025 25.7737 14.806C25.8907 14.8093 25.9907 14.8129 26.0735 14.8172C26.5868 14.8448 27.0976 14.9075 27.6023 15.0049C27.7614 15.0358 27.9017 15.1286 27.9924 15.263C28.083 15.3973 28.1166 15.5622 28.0857 15.7213C28.0549 15.8804 27.962 16.0207 27.8277 16.1113C27.6934 16.202 27.5285 16.2356 27.3694 16.2047C26.9204 16.1178 26.466 16.062 26.0093 16.0376C25.9041 16.0317 25.8156 16.028 25.7439 16.0263C25.6918 16.0247 25.6022 16.0242 25.4759 16.0242C25.0191 16.0236 24.5628 16.0548 24.1104 16.1173C24.0024 16.1318 23.9145 16.1447 23.8468 16.1562C23.7884 16.1658 23.7098 16.1806 23.6081 16.1998C23.6009 16.2019 23.5934 16.2035 23.586 16.2047H23.5829C23.1312 16.2914 22.686 16.4094 22.2506 16.5579C22.1741 16.5853 22.0889 16.6149 21.9963 16.6494C21.9193 16.6768 21.8462 16.7066 21.7757 16.7349C21.7656 16.7395 21.7552 16.7442 21.7442 16.7483C21.3124 16.9237 20.8936 17.1297 20.491 17.3645C20.4244 17.4028 20.3461 17.4508 20.2562 17.5064C20.1529 17.5702 20.0754 17.6198 20.0231 17.6544C19.8039 17.7998 19.5781 17.9626 19.3499 18.1426L19.223 18.2426C18.9602 18.4568 18.7083 18.6841 18.4685 18.9237L18.4701 18.9254C18.1269 19.2684 17.8089 19.6359 17.5188 20.0249C17.4675 20.0936 17.4133 20.1688 17.3561 20.2506C17.2989 20.3325 17.2533 20.3979 17.2191 20.4468C17.212 20.4592 17.2043 20.4716 17.1961 20.4838C16.9384 20.8744 16.7089 21.2829 16.5092 21.706C16.4855 21.7576 16.4489 21.8398 16.3996 21.9526C16.3618 22.0395 16.3319 22.1091 16.31 22.162C16.3043 22.1787 16.2982 22.1948 16.2914 22.2107H16.2897C16.1182 22.6358 15.9763 23.0722 15.8651 23.5168C15.8401 23.6171 15.8193 23.7039 15.8037 23.7765C15.7941 23.8182 15.7763 23.9061 15.7511 24.0393C15.6641 24.4882 15.6081 24.9425 15.5834 25.3991C15.5782 25.5046 15.5744 25.5933 15.5722 25.6646C15.5709 25.7163 15.5702 25.8056 15.57 25.9325L15.5678 25.9246Z" fill="#54238E"/>
<path d="M26.0487 40.5222C25.9361 40.4075 25.8733 40.253 25.874 40.0923C25.8748 39.9315 25.939 39.7776 26.0526 39.6639C26.1663 39.5503 26.3203 39.4861 26.481 39.4855C26.6418 39.4848 26.7963 39.5476 26.9109 39.6602L30.1902 42.939C30.245 42.8968 30.2976 42.8568 30.3527 42.8171C30.4004 42.7826 30.4544 42.7453 30.5138 42.7061C30.7891 42.5244 31.0816 42.3704 31.3873 42.2464H31.3892C31.3996 42.242 31.4103 42.2382 31.4212 42.2343C31.4933 42.2069 31.5673 42.1795 31.6432 42.1521C31.7358 42.1205 31.8216 42.0931 31.9007 42.0699C32.3464 41.9433 32.8073 41.8788 33.2706 41.8781C33.2868 41.8781 33.303 41.8782 33.3186 41.8801C33.3991 41.8801 33.4726 41.8831 33.5378 41.8864C33.62 41.8905 33.7096 41.8981 33.8071 41.9088C34.2689 41.9585 34.7215 42.0723 35.1518 42.2469C35.234 42.2806 35.3176 42.3168 35.4022 42.3565C35.5025 42.4037 35.5847 42.445 35.6488 42.4787C35.8942 42.6121 36.1277 42.766 36.3469 42.939L42.5741 36.7116C42.4908 36.6059 42.4128 36.4976 42.3401 36.3867C42.316 36.3501 42.2871 36.3045 42.2535 36.2497C42.1097 36.0161 41.9857 35.7708 41.8828 35.5165V35.5146C41.8787 35.5039 41.8743 35.4929 41.8707 35.4825C41.8433 35.4105 41.8159 35.3359 41.7885 35.2603C41.7565 35.1677 41.7296 35.0822 41.7064 35.0028C41.5797 34.5577 41.5151 34.0972 41.5146 33.6345C41.5146 33.6186 41.5146 33.6024 41.5165 33.5866C41.5165 33.506 41.5192 33.4326 41.5225 33.3674C41.5266 33.2852 41.5343 33.1959 41.5447 33.0983C41.5946 32.6364 41.7086 32.1837 41.8836 31.7533C41.9168 31.6711 41.9538 31.5889 41.9932 31.5029C42.0409 31.4023 42.0818 31.3201 42.116 31.2563C42.2488 31.0109 42.4017 30.7769 42.5732 30.5568L39.2947 27.2786C39.1828 27.1633 39.1207 27.0085 39.1219 26.8477C39.1231 26.687 39.1875 26.5332 39.3012 26.4195C39.4148 26.3058 39.5686 26.2415 39.7294 26.2403C39.8901 26.239 40.0449 26.3011 40.1603 26.4131L43.8448 30.0979C43.9594 30.2127 44.0238 30.3682 44.0238 30.5304C44.0238 30.6926 43.9594 30.8481 43.8448 30.9629C43.5857 31.2213 43.3653 31.5159 43.1905 31.8374C43.1478 31.9166 43.1166 31.978 43.0955 32.0224C43.0681 32.0832 43.0407 32.1465 43.0133 32.212C42.8819 32.5375 42.7965 32.8797 42.7596 33.2287C42.753 33.2876 42.7478 33.355 42.7437 33.4301C42.7404 33.4909 42.7385 33.5457 42.7382 33.5945C42.7382 33.6076 42.7382 33.6205 42.7382 33.6339C42.7373 33.9832 42.7848 34.331 42.8796 34.6672C42.9002 34.7402 42.9204 34.8059 42.9401 34.8641C42.9587 34.9189 42.979 34.9737 43.0012 35.0285C43.0056 35.0379 43.01 35.048 43.0138 35.0579C43.0917 35.2491 43.1848 35.4337 43.2924 35.6099C43.3086 35.6354 43.3303 35.6699 43.3588 35.7129C43.491 35.9127 43.6416 36.0996 43.8086 36.2713C43.8213 36.2818 43.8334 36.293 43.8448 36.3048C43.9594 36.4196 44.0238 36.5752 44.0238 36.7374C44.0238 36.8996 43.9594 37.0552 43.8448 37.17L36.8072 44.2087L36.8053 44.207C36.691 44.3212 36.536 44.3854 36.3743 44.3854C36.2127 44.3854 36.0577 44.3212 35.9434 44.207C35.6842 43.9483 35.3889 43.7285 35.0666 43.5547C34.9874 43.5119 34.9261 43.4801 34.8814 43.459C34.8206 43.4316 34.7576 43.4029 34.6918 43.3768C34.3663 43.2454 34.0241 43.16 33.675 43.1231C33.6159 43.1163 33.5487 43.1114 33.4737 43.1075C33.4128 43.104 33.3589 43.1023 33.3093 43.1012C33.2958 43.1012 33.2819 43.1026 33.2687 43.1026C32.9193 43.1019 32.5714 43.1494 32.235 43.2437C32.1618 43.2645 32.0963 43.2848 32.0385 43.3051C31.9807 43.3253 31.9303 43.3437 31.8741 43.3656L31.8443 43.3785C31.6141 43.4722 31.3939 43.5884 31.1867 43.7256C31.1511 43.7492 31.1108 43.7769 31.0656 43.8078C30.8984 43.9278 30.7413 44.0613 30.596 44.207C30.4817 44.3212 30.3267 44.3854 30.1652 44.3854C30.0036 44.3854 29.8486 44.3212 29.7343 44.207L26.0487 40.5222Z" fill="#54238E"/>
<path d="M35.2092 24.0342C35.1925 23.955 35.1917 23.8734 35.2068 23.7939C35.2219 23.7145 35.2525 23.6388 35.297 23.5712C35.3416 23.5037 35.399 23.4457 35.4661 23.4005C35.5332 23.3553 35.6085 23.3239 35.6879 23.308C35.7672 23.2922 35.8488 23.2922 35.9281 23.3081C36.0074 23.324 36.0828 23.3554 36.1498 23.4006C36.2169 23.4459 36.2743 23.5039 36.3188 23.5715C36.3633 23.639 36.394 23.7147 36.409 23.7942C36.4112 23.8051 36.4131 23.8163 36.4148 23.8276C36.4279 23.8969 36.4422 23.9846 36.4608 24.092C36.4805 24.2107 36.4959 24.3098 36.5068 24.3893C36.5775 24.8976 36.6132 25.4103 36.6137 25.9236C36.6137 25.9849 36.6117 26.0847 36.6079 26.2211C36.6046 26.3381 36.6011 26.4378 36.5967 26.5225C36.5691 27.0358 36.5064 27.5466 36.409 28.0513C36.3989 28.1037 36.3778 28.2017 36.346 28.3445C36.321 28.4566 36.2981 28.5545 36.2775 28.6379C36.1513 29.1405 35.9903 29.6337 35.7955 30.1139L35.7931 30.121H35.7945C35.7895 30.1328 35.7846 30.1437 35.7791 30.155C35.738 30.2558 35.7049 30.3351 35.6797 30.3928C35.6523 30.4547 35.6095 30.5476 35.5523 30.6703C35.3271 31.1476 35.0682 31.6082 34.7774 32.0485V32.0501L34.7752 32.0534V32.0551L34.7544 32.0825C34.6879 32.1824 34.6374 32.2572 34.6029 32.3069C34.5467 32.386 34.4859 32.4712 34.4196 32.5595C34.0947 32.9963 33.7384 33.409 33.3535 33.794H33.3522H33.3505C33.0827 34.0621 32.8016 34.3164 32.508 34.556L32.3642 34.673C32.1267 34.8602 31.8741 35.042 31.6063 35.2185C31.4967 35.2922 31.4088 35.3475 31.346 35.3864C31.2704 35.4336 31.1819 35.4866 31.0805 35.5456C30.6274 35.8093 30.1561 36.0403 29.6701 36.2369H29.6687L29.6386 36.2481C29.5514 36.2832 29.4671 36.3155 29.386 36.3459C29.3002 36.3783 29.2051 36.4122 29.1016 36.4476C28.6143 36.6151 28.1161 36.7489 27.6105 36.8479C27.6001 36.8501 27.5892 36.8517 27.5788 36.8534C27.4829 36.8717 27.3933 36.8876 27.3111 36.9013C27.2976 36.9038 27.2837 36.9051 27.2702 36.9068C27.1702 36.9232 27.0853 36.9361 27.016 36.946C26.5076 37.0165 25.9949 37.0519 25.4817 37.052C25.3217 37.0486 25.1694 36.9827 25.0575 36.8683C24.9455 36.754 24.8828 36.6003 24.8828 36.4403C24.8828 36.2803 24.9455 36.1267 25.0575 36.0123C25.1694 35.898 25.3217 35.832 25.4817 35.8287C25.9386 35.8292 26.3951 35.798 26.8478 35.7355C26.9368 35.7235 27.0121 35.7125 27.0743 35.7021L27.1124 35.6947C27.1982 35.6804 27.2768 35.6673 27.3491 35.653L27.3716 35.6478H27.3746C27.8263 35.5613 28.2714 35.4434 28.7067 35.2949C28.7831 35.2686 28.8678 35.2381 28.9607 35.2034C29.0377 35.1744 29.1117 35.1456 29.1818 35.1179C29.1917 35.1133 29.2021 35.1086 29.2131 35.1045C29.6448 34.929 30.0635 34.723 30.466 34.4881C30.5329 34.4494 30.6109 34.402 30.7011 34.3464C30.8041 34.2823 30.8818 34.2331 30.9342 34.1987C31.1545 34.0526 31.379 33.8898 31.6077 33.7105L31.7345 33.6102C31.9975 33.3961 32.2493 33.1688 32.4891 32.9291L32.4875 32.9274C32.8308 32.5847 33.1487 32.2174 33.4387 31.8285C33.4906 31.7591 33.5454 31.6838 33.6031 31.6027C33.6623 31.5178 33.7075 31.4529 33.7401 31.4063C33.7472 31.3937 33.7546 31.3813 33.7631 31.3693C34.0207 30.9787 34.2503 30.5703 34.4503 30.1473C34.4738 30.0958 34.5104 30.0136 34.5599 29.9007C34.598 29.8139 34.6278 29.744 34.65 29.6911C34.6552 29.6747 34.6613 29.6585 34.6678 29.6426H34.6695C34.8412 29.2175 34.9831 28.7809 35.0939 28.336C35.1191 28.2357 35.1398 28.1492 35.1561 28.0765C35.1651 28.0349 35.1835 27.9475 35.2084 27.8138C35.2953 27.3648 35.3512 26.9104 35.3755 26.4537C35.3813 26.3485 35.3851 26.2597 35.387 26.1882C35.3885 26.1364 35.3891 26.0471 35.389 25.9206C35.3893 25.4637 35.3583 25.0073 35.2961 24.5547C35.281 24.4471 35.2687 24.3588 35.2569 24.2912C35.2474 24.2331 35.2331 24.1541 35.2139 24.0542C35.2117 24.0465 35.21 24.0388 35.2084 24.0306L35.2092 24.0342Z" fill="#54238E"/>
<path d="M20.9481 24.3387L13.9993 31.2878C13.8849 31.402 13.7299 31.4661 13.5683 31.4661C13.4067 31.4661 13.2517 31.402 13.1373 31.2878L0.22743 18.3779C0.170806 18.3213 0.125889 18.2541 0.0952436 18.1801C0.0645985 18.1061 0.0488281 18.0269 0.0488281 17.9468C0.0488281 17.8667 0.0645985 17.7874 0.0952436 17.7135C0.125889 17.6395 0.170806 17.5723 0.22743 17.5157L8.69027 9.05311L8.68863 9.0512L17.1517 0.58836C17.2085 0.531554 17.2759 0.486493 17.3502 0.455749C17.4244 0.425005 17.5039 0.40918 17.5842 0.40918C17.6645 0.40918 17.7441 0.425005 17.8183 0.455749C17.8925 0.486493 17.9599 0.531554 18.0167 0.58836L34.4147 16.9861L50.8127 33.3843C50.9273 33.4991 50.9916 33.6546 50.9916 33.8168C50.9916 33.979 50.9273 34.1345 50.8127 34.2493L42.3496 42.7124L42.3479 42.7108L33.8853 51.1733C33.8287 51.23 33.7615 51.2749 33.6875 51.3056C33.6135 51.3363 33.5342 51.3521 33.4541 51.3521C33.374 51.3521 33.2947 51.3363 33.2207 51.3056C33.1467 51.2749 33.0795 51.23 33.0228 51.1733V51.1752L20.1415 38.2941C20.0846 38.2374 20.0395 38.1699 20.0087 38.0957C19.9779 38.0214 19.962 37.9419 19.962 37.8615C19.962 37.7811 19.9779 37.7016 20.0087 37.6273C20.0395 37.5531 20.0846 37.4857 20.1415 37.4289C20.154 37.416 20.1673 37.4039 20.1812 37.3924L27.0856 30.488C26.7604 29.9676 26.6212 29.3523 26.6909 28.7426C26.7606 28.1329 27.0349 27.5648 27.4692 27.1312L27.4675 27.1295L27.4692 27.1309C27.9778 26.6223 28.6677 26.3365 29.3871 26.3365C30.1064 26.3365 30.7963 26.6223 31.305 27.1309C31.5574 27.3824 31.7577 27.6813 31.8944 28.0104C32.0311 28.3396 32.1015 28.6924 32.1015 29.0488C32.1015 29.4052 32.0311 29.758 31.8944 30.0871C31.7577 30.4163 31.5574 30.7152 31.305 30.9667L31.3069 30.9683L31.305 30.9664C30.8711 31.4003 30.3031 31.6744 29.6935 31.744C29.0839 31.8137 28.4687 31.6748 27.9481 31.35L21.438 37.8604L33.4574 49.8793L41.4873 41.8496L41.4857 41.8477L49.5162 33.8175L33.5481 17.8519L17.583 1.88677L9.55277 9.91726L9.55113 9.91562L1.51927 17.9475L13.5672 29.9954L20.0719 23.4905C19.7337 22.9695 19.585 22.3481 19.6505 21.7305C19.7161 21.1129 19.9919 20.5366 20.4319 20.0983L20.4302 20.0966L20.4322 20.0983C20.6837 19.8459 20.9826 19.6456 21.3117 19.5089C21.6408 19.3723 21.9937 19.302 22.35 19.302C22.7064 19.302 23.0592 19.3723 23.3884 19.5089C23.7175 19.6456 24.0164 19.8459 24.2679 20.0983L24.2696 20.0966L24.2682 20.0983C24.5205 20.3499 24.7208 20.6488 24.8574 20.9779C24.994 21.307 25.0643 21.6598 25.0643 22.0162C25.0643 22.3725 24.994 22.7253 24.8574 23.0544C24.7208 23.3835 24.5205 23.6824 24.2682 23.934L24.2701 23.9357L24.2685 23.934C23.8394 24.3628 23.2792 24.6355 22.677 24.7086C22.0749 24.7818 21.4657 24.6512 20.9464 24.3376L20.9481 24.3387Z" fill="#54238E"/>
<path d="M26.4114 7.30595C26.2496 7.29839 26.0974 7.22686 25.9883 7.10709C25.8792 6.98732 25.8222 6.82912 25.8298 6.6673C25.8373 6.50547 25.9089 6.35328 26.0286 6.24419C26.1484 6.13511 26.3066 6.07807 26.4684 6.08563C27.216 6.12184 27.9609 6.19996 28.6998 6.31961C31.3456 6.74567 33.8766 7.70726 36.1379 9.14548C41.4181 12.4996 44.9975 18.2826 45.315 24.9325C45.3215 25.0937 45.2639 25.2509 45.1549 25.3698C45.0459 25.4888 44.8943 25.5598 44.7331 25.5673C44.572 25.5749 44.4144 25.5184 44.2947 25.4102C44.1751 25.302 44.103 25.1508 44.0944 24.9897C43.7966 18.7484 40.437 13.3207 35.4822 10.1729C33.3601 8.82499 30.9858 7.92326 28.5039 7.52267C27.811 7.41156 27.1124 7.33921 26.4114 7.30595Z" fill="#9C6BD8"/>
<path d="M11.7411 24.488C11.8558 24.6027 11.9203 24.7583 11.9203 24.9206C11.9203 25.0829 11.8558 25.2385 11.7411 25.3532C11.6263 25.468 11.4707 25.5324 11.3085 25.5324C11.1462 25.5324 10.9906 25.468 10.8758 25.3532L7.19128 21.6687C7.13436 21.6119 7.0892 21.5445 7.05839 21.4702C7.02758 21.3959 7.01172 21.3163 7.01172 21.2359C7.01172 21.1555 7.02758 21.0759 7.05839 21.0017C7.0892 20.9274 7.13436 20.8599 7.19128 20.8032C7.2554 20.7388 7.30581 20.6862 7.34307 20.6445C7.38554 20.5969 7.43184 20.5421 7.48006 20.4801L7.49075 20.4673C7.71026 20.1901 7.88932 19.8832 8.02256 19.5557C8.02712 19.5453 8.03151 19.5352 8.03571 19.5253C8.05762 19.4705 8.0779 19.4157 8.09626 19.3609C8.11626 19.3026 8.13626 19.2371 8.15735 19.1639C8.25169 18.8276 8.29917 18.4798 8.29846 18.1305C8.29846 18.1168 8.29846 18.1031 8.29846 18.0896C8.29846 18.0414 8.29572 17.9869 8.29216 17.9269C8.28832 17.8513 8.28311 17.7839 8.27681 17.7252C8.23982 17.3762 8.15433 17.0339 8.02283 16.7085C7.99543 16.6427 7.96803 16.5791 7.94063 16.5189C7.91963 16.4741 7.88784 16.4125 7.84528 16.3339C7.67078 16.0124 7.45048 15.7179 7.19128 15.4597C7.13436 15.4029 7.0892 15.3354 7.05839 15.2612C7.02758 15.1869 7.01172 15.1073 7.01172 15.0269C7.01172 14.9465 7.02758 14.8669 7.05839 14.7926C7.0892 14.7184 7.13436 14.6509 7.19128 14.5941L14.2283 7.55711C14.2851 7.5003 14.3525 7.45524 14.4267 7.4245C14.5009 7.39376 14.5805 7.37793 14.6608 7.37793C14.7411 7.37793 14.8207 7.39376 14.8949 7.4245C14.9691 7.45524 15.0365 7.5003 15.0933 7.55711C15.1051 7.56889 15.1163 7.58149 15.127 7.59382C15.2986 7.76116 15.4858 7.9118 15.6859 8.04371L15.7903 8.10782C15.8043 8.11659 15.8177 8.1259 15.8306 8.13522C15.9937 8.23276 16.164 8.31785 16.3399 8.38975C16.3499 8.39344 16.3597 8.39764 16.3692 8.40235C16.424 8.42427 16.4788 8.44482 16.5336 8.46318C16.5884 8.48154 16.6577 8.50345 16.7306 8.52373C17.0672 8.61789 17.4151 8.66501 17.7646 8.66373C17.7783 8.66373 17.792 8.66374 17.8052 8.66538C17.8537 8.66538 17.9079 8.66236 17.9696 8.65935C18.0452 8.65524 18.1123 8.64976 18.1712 8.64346C18.5207 8.60665 18.8634 8.52126 19.1893 8.38975C19.2551 8.36235 19.3187 8.33495 19.3792 8.30755C19.4236 8.28673 19.4855 8.25495 19.5644 8.21221C19.8867 8.03828 20.182 7.81854 20.4412 7.55985C20.4977 7.50324 20.5649 7.45834 20.6388 7.4277C20.7128 7.39706 20.792 7.38129 20.872 7.38129C20.952 7.38129 21.0313 7.39706 21.1052 7.4277C21.1791 7.45834 21.2463 7.50324 21.3029 7.55985L21.3048 7.55821L24.9896 11.243C25.1043 11.3578 25.1688 11.5135 25.1688 11.6757C25.1687 11.838 25.1042 11.9937 24.9895 12.1084C24.8747 12.2231 24.719 12.2876 24.5567 12.2876C24.3945 12.2875 24.2388 12.223 24.1241 12.1083L20.8431 8.82812C20.6239 9.00057 20.3903 9.15401 20.145 9.28677C20.0817 9.32075 19.9995 9.36185 19.8984 9.40925C19.814 9.44925 19.7302 9.48569 19.648 9.51884C19.2175 9.69355 18.7649 9.80752 18.303 9.85748C18.2051 9.8679 18.1154 9.8752 18.034 9.8794C17.9679 9.88324 17.8945 9.88516 17.8148 9.88598C17.7991 9.88598 17.7833 9.8879 17.7668 9.8879C17.3042 9.88716 16.8438 9.82262 16.3988 9.69611C16.3191 9.67364 16.2344 9.64652 16.1407 9.61391C16.0648 9.58652 15.9908 9.56104 15.9188 9.53172C15.9081 9.52788 15.8971 9.52432 15.8865 9.51966H15.8848C15.6481 9.42372 15.4191 9.30968 15.1999 9.17855C15.1826 9.17006 15.1659 9.16047 15.1489 9.15115C15.1319 9.14184 15.09 9.11307 15.0141 9.06293C14.9034 8.98987 14.7951 8.91187 14.6891 8.82895L8.46285 15.0525C8.63449 15.2727 8.78753 15.5067 8.9204 15.7523C8.95437 15.815 8.9952 15.8972 9.04287 15.9988C9.08233 16.0832 9.11886 16.1666 9.15247 16.249C9.32695 16.6793 9.44092 17.1318 9.49111 17.5934C9.50125 17.6913 9.50865 17.7814 9.5133 17.8628C9.51659 17.9288 9.51879 18.0022 9.51906 18.082C9.51906 18.0978 9.52125 18.1137 9.52125 18.1296C9.52076 18.5923 9.45622 19.0527 9.32946 19.4976C9.30699 19.5768 9.27987 19.662 9.24727 19.7555C9.22096 19.8313 9.19356 19.9053 9.16507 19.9777L9.15329 20.0097V20.0114C8.97947 20.4399 8.74701 20.8422 8.46257 21.2068L11.7411 24.488Z" fill="#54238E"/>
<path d="M63.9502 44.0732C63.2918 44.0732 62.7026 43.9309 62.1824 43.6464C61.6703 43.362 61.268 42.9718 60.9754 42.476C60.6828 41.9802 60.5364 41.4112 60.5364 40.7691C60.5364 40.127 60.6828 39.558 60.9754 39.0622C61.268 38.5664 61.6703 38.1804 62.1824 37.904C62.7026 37.6195 63.2918 37.4773 63.9502 37.4773C64.5354 37.4773 65.0556 37.5951 65.5108 37.8308C65.9741 38.0584 66.3317 38.3998 66.5837 38.855L65.6937 39.428C65.4823 39.111 65.2222 38.8794 64.9134 38.7331C64.6126 38.5786 64.2875 38.5014 63.938 38.5014C63.5154 38.5014 63.1374 38.5949 62.8042 38.7818C62.4709 38.9688 62.2068 39.2329 62.0117 39.5743C61.8166 39.9076 61.7191 40.3058 61.7191 40.7691C61.7191 41.2324 61.8166 41.6348 62.0117 41.9761C62.2068 42.3175 62.4709 42.5817 62.8042 42.7686C63.1374 42.9556 63.5154 43.049 63.938 43.049C64.2875 43.049 64.6126 42.9759 64.9134 42.8296C65.2222 42.6751 65.4823 42.4394 65.6937 42.1224L66.5837 42.6833C66.3317 43.1303 65.9741 43.4757 65.5108 43.7196C65.0556 43.9553 64.5354 44.0732 63.9502 44.0732ZM74.787 44V37.5382H75.9574V40.2814H79.6394V37.5382H80.8098V44H79.6394V41.2934H75.9574V44H74.787ZM88.7549 44V42.6345L88.694 42.3785V40.0498C88.694 39.554 88.5477 39.172 88.2551 38.9037C87.9706 38.6274 87.5398 38.4892 86.9627 38.4892C86.5807 38.4892 86.2068 38.5542 85.841 38.6843C85.4753 38.8062 85.1664 38.9728 84.9144 39.1842L84.4268 38.3063C84.76 38.0381 85.1583 37.8349 85.6216 37.6967C86.093 37.5504 86.5848 37.4773 87.0968 37.4773C87.9828 37.4773 88.6655 37.6927 89.1451 38.1235C89.6246 38.5542 89.8644 39.2126 89.8644 40.0986V44H88.7549ZM86.6335 44.0732C86.154 44.0732 85.7313 43.9919 85.3656 43.8293C85.0079 43.6668 84.7316 43.4432 84.5365 43.1588C84.3414 42.8661 84.2439 42.537 84.2439 42.1712C84.2439 41.8217 84.3252 41.5047 84.4877 41.2202C84.6584 40.9357 84.9307 40.7082 85.3046 40.5375C85.6866 40.3668 86.1987 40.2814 86.8408 40.2814H88.889V41.1227H86.8896C86.3043 41.1227 85.9101 41.2202 85.7069 41.4153C85.5037 41.6104 85.4021 41.8461 85.4021 42.1224C85.4021 42.4394 85.5281 42.6955 85.7801 42.8905C86.032 43.0775 86.3816 43.1709 86.8286 43.1709C87.2675 43.1709 87.6495 43.0734 87.9746 42.8783C88.3079 42.6833 88.5477 42.3988 88.694 42.0249L88.9256 42.8296C88.7712 43.2116 88.4989 43.5164 88.1088 43.744C87.7186 43.9634 87.2269 44.0732 86.6335 44.0732ZM93.6789 44V37.5382H94.8859L97.6657 42.3175H97.178L100.031 37.5382H101.128V44H100.067V38.855L100.263 38.9647L97.6535 43.2685H97.1414L94.5201 38.8794L94.7518 38.8306V44H93.6789ZM105.113 44V37.5382H106.284V42.2444L110.246 37.5382H111.307V44H110.136V39.2939L106.186 44H105.113ZM120.266 44V37.5382H121.437V40.2814H125.119V37.5382H126.289V44H125.119V41.2934H121.437V44H120.266ZM134.234 44V42.6345L134.173 42.3785V40.0498C134.173 39.554 134.027 39.172 133.735 38.9037C133.45 38.6274 133.019 38.4892 132.442 38.4892C132.06 38.4892 131.686 38.5542 131.321 38.6843C130.955 38.8062 130.646 38.9728 130.394 39.1842L129.906 38.3063C130.24 38.0381 130.638 37.8349 131.101 37.6967C131.573 37.5504 132.064 37.4773 132.576 37.4773C133.462 37.4773 134.145 37.6927 134.625 38.1235C135.104 38.5542 135.344 39.2126 135.344 40.0986V44H134.234ZM132.113 44.0732C131.633 44.0732 131.211 43.9919 130.845 43.8293C130.487 43.6668 130.211 43.4432 130.016 43.1588C129.821 42.8661 129.723 42.537 129.723 42.1712C129.723 41.8217 129.805 41.5047 129.967 41.2202C130.138 40.9357 130.41 40.7082 130.784 40.5375C131.166 40.3668 131.678 40.2814 132.32 40.2814H134.369V41.1227H132.369C131.784 41.1227 131.39 41.2202 131.186 41.4153C130.983 41.6104 130.882 41.8461 130.882 42.1224C130.882 42.4394 131.008 42.6955 131.26 42.8905C131.512 43.0775 131.861 43.1709 132.308 43.1709C132.747 43.1709 133.129 43.0734 133.454 42.8783C133.787 42.6833 134.027 42.3988 134.173 42.0249L134.405 42.8296C134.251 43.2116 133.978 43.5164 133.588 43.744C133.198 43.9634 132.706 44.0732 132.113 44.0732ZM143.572 43.4514V38.5624H140.768L140.707 39.806C140.691 40.2124 140.662 40.6066 140.621 40.9886C140.589 41.3625 140.532 41.7079 140.451 42.0249C140.378 42.3419 140.268 42.602 140.122 42.8052C139.975 43.0084 139.78 43.1344 139.536 43.1831L138.378 42.9759C138.63 42.984 138.833 42.9027 138.988 42.732C139.142 42.5532 139.26 42.3094 139.341 42.0005C139.431 41.6916 139.496 41.3421 139.536 40.952C139.577 40.5537 139.609 40.1433 139.634 39.7206L139.731 37.5382H144.742V43.4514H143.572ZM138.122 45.4996V42.9759H145.73V45.4996H144.633V44H139.232V45.4996H138.122ZM151.839 44.0732C151.148 44.0732 150.538 43.9309 150.01 43.6464C149.49 43.362 149.083 42.9718 148.791 42.476C148.506 41.9802 148.364 41.4112 148.364 40.7691C148.364 40.127 148.502 39.558 148.779 39.0622C149.063 38.5664 149.449 38.1804 149.937 37.904C150.433 37.6195 150.989 37.4773 151.607 37.4773C152.233 37.4773 152.786 37.6155 153.265 37.8918C153.745 38.1682 154.119 38.5583 154.387 39.0622C154.663 39.558 154.801 40.1392 154.801 40.8057C154.801 40.8545 154.797 40.9114 154.789 40.9764C154.789 41.0414 154.785 41.1024 154.777 41.1593H149.278V40.318H154.167L153.692 40.6106C153.7 40.1961 153.615 39.8263 153.436 39.5012C153.257 39.176 153.009 38.9241 152.692 38.7452C152.383 38.5583 152.022 38.4648 151.607 38.4648C151.201 38.4648 150.839 38.5583 150.522 38.7452C150.205 38.9241 149.957 39.1801 149.778 39.5133C149.6 39.8385 149.51 40.2124 149.51 40.635V40.8301C149.51 41.2609 149.608 41.6469 149.803 41.9883C150.006 42.3216 150.286 42.5817 150.644 42.7686C151.002 42.9556 151.412 43.049 151.875 43.049C152.257 43.049 152.603 42.984 152.912 42.854C153.229 42.7239 153.505 42.5288 153.741 42.2687L154.387 43.0246C154.094 43.366 153.729 43.6261 153.29 43.8049C152.859 43.9837 152.375 44.0732 151.839 44.0732ZM152.729 36.3922C152.558 36.3922 152.412 36.3353 152.29 36.2215C152.168 36.0996 152.107 35.9492 152.107 35.7704C152.107 35.5835 152.168 35.4331 152.29 35.3193C152.412 35.1974 152.558 35.1364 152.729 35.1364C152.9 35.1364 153.046 35.1974 153.168 35.3193C153.29 35.4331 153.351 35.5835 153.351 35.7704C153.351 35.9492 153.29 36.0996 153.168 36.2215C153.046 36.3353 152.9 36.3922 152.729 36.3922ZM150.461 36.3922C150.29 36.3922 150.144 36.3353 150.022 36.2215C149.9 36.0996 149.839 35.9492 149.839 35.7704C149.839 35.5835 149.9 35.4331 150.022 35.3193C150.144 35.1974 150.29 35.1364 150.461 35.1364C150.632 35.1364 150.778 35.1974 150.9 35.3193C151.022 35.4331 151.083 35.5835 151.083 35.7704C151.083 35.9492 151.022 36.0996 150.9 36.2215C150.778 36.3353 150.632 36.3922 150.461 36.3922ZM165.814 44L163.754 40.8545L164.717 40.2692L167.204 44H165.814ZM162.413 41.269V40.2692H164.51V41.269H162.413ZM164.827 40.9032L163.717 40.7569L165.778 37.5382H167.033L164.827 40.9032ZM158.56 44H157.17L159.645 40.2692L160.608 40.8545L158.56 44ZM162.766 44H161.596V37.5382H162.766V44ZM161.949 41.269H159.865V40.2692H161.949V41.269ZM159.548 40.9032L157.341 37.5382H158.584L160.645 40.7569L159.548 40.9032ZM170.199 44V37.5382H171.369V40.2814H175.051V37.5382H176.222V44H175.051V41.2934H171.369V44H170.199ZM182.972 44.0732C182.322 44.0732 181.745 43.9309 181.241 43.6464C180.737 43.362 180.339 42.9718 180.046 42.476C179.753 41.9721 179.607 41.4031 179.607 40.7691C179.607 40.127 179.753 39.558 180.046 39.0622C180.339 38.5664 180.737 38.1804 181.241 37.904C181.745 37.6195 182.322 37.4773 182.972 37.4773C183.614 37.4773 184.187 37.6195 184.691 37.904C185.203 38.1804 185.601 38.5664 185.886 39.0622C186.179 39.5499 186.325 40.1189 186.325 40.7691C186.325 41.4112 186.179 41.9802 185.886 42.476C185.601 42.9718 185.203 43.362 184.691 43.6464C184.187 43.9309 183.614 44.0732 182.972 44.0732ZM182.972 43.049C183.387 43.049 183.756 42.9556 184.082 42.7686C184.415 42.5817 184.675 42.3175 184.862 41.9761C185.049 41.6266 185.142 41.2243 185.142 40.7691C185.142 40.3058 185.049 39.9076 184.862 39.5743C184.675 39.2329 184.415 38.9688 184.082 38.7818C183.756 38.5949 183.387 38.5014 182.972 38.5014C182.558 38.5014 182.188 38.5949 181.863 38.7818C181.537 38.9688 181.277 39.2329 181.082 39.5743C180.887 39.9076 180.79 40.3058 180.79 40.7691C180.79 41.2243 180.887 41.6266 181.082 41.9761C181.277 42.3175 181.537 42.5817 181.863 42.7686C182.188 42.9556 182.558 43.049 182.972 43.049Z" fill="#3D1966"/>
</svg>
